<svg xmlns="http://www.w3.org/2000/svg" width="256" height="256">
  <path fill="#e38171" d="m129.586 48.765-.745-.316h-.805c-32.272 0-56.17 7.333-64.941 10.485l-1.468.53-.725 1.387c-5.376 10.22-23.122 46.581-25.947 85.452-2.53 34.72 8.884 77.21 13.9 93.867l.92 3.05 3.172-.195c8.261-.489 24.56-1.979 40.869-6.353a5.773 5.773 0 0 1 7.068 4.08s6.59-1.592 10.7-3.112c5.926-2.182 10.556-4.539 10.556-4.539l1.123-.632c-17.34-10.659-29.05-22.612-29.518-23.102a5.79 5.79 0 0 1-1.59-4.294c.04-.754 1.018-18.532 3.293-33.475 1.428-9.363 4.294-19.256 6.467-25.908l.805-2.468-1.917-1.754a40.534 40.534 0 0 1-13.218-29.925c0-22.327 18.155-40.482 40.47-40.482h.909l.826-.387c2.457-1.173 6.548-4.845 6.334-11.2-.214-6.385-4.192-9.73-6.497-10.7z" />
  <path fill="#f0b7b1" d="m207.204 240.169-.917 3.05-3.172-.194c-11.424-.683-33.558-2.916-53.232-10.28-21.246-7.936-38.31-22.43-44.654-28.304l-1.01-.928.786-.848s5.733 4.815 24.468 4.815c11.384 0 19.727-1.785 24.51-3.172 2.785-.815 4.559-3.53 4.233-6.405-.53-4.6-1.112-7.762-1.112-7.762l-.122-1.142a5.735 5.735 0 0 0 3.866-2.133 5.7 5.7 0 0 0 1.234-4.243 269.919 269.919 0 0 0-1.439-11.025c-1.427-9.374-4.303-19.256-6.455-25.908l-.807-2.457 1.918-1.755a40.507 40.507 0 0 0 13.229-29.925c0-22.327-18.155-40.492-40.482-40.492l.652-1.142.582-.286c2.192-1.05 5.875-4.355 5.67-10.118-.193-5.813-3.732-8.833-5.793-9.69l-.53-.214v-1.152c32.006.091 55.67 7.354 64.36 10.485l1.468.53.724 1.387c5.386 10.22 23.123 46.582 25.948 85.442 2.53 34.648-8.884 77.18-13.912 93.867z" />
  <path fill="#ffffff" d="M129.453 208.623c-18.92 0-24.958-4.876-25.203-5.08l-.448-.377.04-.592c.01-.193 1.468-19.298 2.988-29.232 2.153-14.188 8.13-30.19 8.19-30.355a5.783 5.783 0 0 0-2.345-6.893 28.41 28.41 0 0 1-3.978-3 28.977 28.977 0 0 1-9.618-21.551c0-15.963 12.984-28.946 28.947-28.946 15.962 0 28.936 12.983 28.936 28.946a29.01 29.01 0 0 1-13.3 24.367l-.133.081a5.762 5.762 0 0 0-2.51 7.017c.623 1.684 6.13 16.84 8.19 30.333.51 3.336.97 6.886 1.378 10.558a5.764 5.764 0 0 0 5.732 5.13c.215 0 .428-.01.643-.03l1.06-.112.194 1.05c.021.133.601 3.244 1.132 7.833.398 3.458-1.724 6.671-5.048 7.64-5.04 1.468-13.443 3.223-24.837 3.223z" />
  <path fill="#a8351a" d="M233.775 145.386c-3.56-48.846-28.242-92.133-29.294-93.96a6.92 6.92 0 0 0-3.243-2.886c-.378-.163-9.343-4.008-24.5-7.425l-1.897-.428-.306-1.918C170.905 16.309 151.352 0 128.015 0c-23.336 0-42.89 16.3-46.52 38.77l-.306 1.918-1.897.428c-15.187 3.426-24.122 7.26-24.49 7.424a7.023 7.023 0 0 0-3.243 2.887c-1.05 1.815-25.733 45.113-29.293 93.959-3.386 46.448 15.962 103.535 16.79 105.942A6.927 6.927 0 0 0 45.624 256c1.04 0 25.785-.185 51.456-7.068 3.682-.99 5.874-4.795 4.896-8.476a6.93 6.93 0 0 0-6.681-5.13c-.6 0-1.204.08-1.795.233-16.207 4.345-32.414 5.824-40.646 6.314l-2.264.134-.652-2.174c-5.008-16.594-16.38-58.923-13.861-93.459 2.814-38.635 20.47-74.823 25.815-84.993l.52-.99 1.05-.377c8.72-3.13 32.455-10.423 64.554-10.423 32.097 0 55.832 7.283 64.552 10.414l1.05.378.521.988c5.344 10.169 23.01 46.367 25.815 84.994 2.509 34.464-8.864 76.833-13.86 93.448l-.653 2.173-2.265-.134c-11.373-.683-33.373-2.906-52.905-10.21-21.052-7.863-37.973-22.254-44.277-28.078l-1.01-.939s1.448-19.144 2.978-29.15c2.143-14.066 8.068-29.966 8.12-30.11 1.143-3.068-.03-6.548-2.805-8.281a29.063 29.063 0 0 1-3.825-2.877 27.859 27.859 0 0 1-9.24-20.694c0-15.33 12.474-27.795 27.794-27.795 15.318 0 27.783 12.475 27.783 27.795a27.824 27.824 0 0 1-9.24 20.694 28.41 28.41 0 0 1-3.54 2.702l-.112.063c-2.917 1.703-4.173 5.232-2.98 8.435.613 1.662 6.08 16.676 8.12 30.078.5 3.315.97 6.843 1.367 10.506a6.914 6.914 0 0 0 7.639 6.119 6.862 6.862 0 0 0 4.641-2.56 6.92 6.92 0 0 0 1.479-5.089 274.073 274.073 0 0 0-1.448-11.067c-1.439-9.444-4.335-19.4-6.508-26.08l-.571-1.765 1.377-1.254a41.713 41.713 0 0 0 13.607-30.782c0-22.96-18.676-41.635-41.636-41.635-22.958 0-41.624 18.675-41.624 41.635a41.74 41.74 0 0 0 13.597 30.782l1.376 1.254-.571 1.764c-2.173 6.692-5.07 16.646-6.507 26.091-2.295 15.065-3.265 32.833-3.305 33.587a6.943 6.943 0 0 0 1.907 5.15c.898.94 22.398 23.206 52.538 34.465 29.803 11.138 63.564 11.363 64.971 11.373h.031a6.92 6.92 0 0 0 6.548-4.671c.827-2.407 20.175-59.505 16.79-105.942zM128.025 35.77c-14.543 0-29.884 2.01-29.884 2.01 2.02-13.535 16.432-23.949 29.885-23.949 13.454 0 27.864 10.404 29.884 23.95 0 0-15.34-2.011-29.884-2.011z" />
</svg>
